<svg xmlns="http://www.w3.org/2000/svg" viewBox="0 0 362.7 373.97"><defs><style>.cls-1{fill:#ea8313;}.cls-2{fill:#606060;}</style></defs><g id="Layer_2" data-name="Layer 2"><g id="Layer_1-2" data-name="Layer 1"><path class="cls-1" d="M229.29,175.4v63.07c-4.31-.25-8.7-.46-13.12-.53v-60L173,149.16V237l-8.81.11-17.12.42c-6.79.18-13.47.53-20.09,1V171.86l7.82-6.68L173,135.4Z"/><path class="cls-2" d="M276.73,125.39V242.18c-8.85-1-18.18-1.87-27.84-2.48-1.27-.1-2.55-.17-3.86-.28v-133l-24.51,18.79-9.8,6.12v20.87l-2.19-1.88-4.38-3.78V128.93l16.37-10.26L245,99.89Z"/><polygon class="cls-2" points="220.52 25.47 220.52 114.85 200.86 127.09 200.86 143.75 188.79 133.46 188.79 6.58 154.52 27.94 154.52 80.43 147.91 75.13 147.91 25.47 188.79 0 220.52 25.47"/><path class="cls-2" d="M100.45,96.71l34.29-21.37v79l13.18-11.27,6.61-5.66,11.93-10.19v-33l-11.93-9.6-6.61-5.29L134.74,68.77,93.85,94.24V241.37c2.17-.23,4.37-.46,6.6-.65Z"/><path class="cls-2" d="M359.21,267.07c-1.19-.62-2.72-1.31-4.53-2.17s-3.94-1.54-6.33-2.43-5.09-1.59-8-2.51-6.14-1.61-9.57-2.43c-6.87-1.57-14.65-3.21-23.2-4.56s-17.81-2.79-27.66-3.83-20.23-2.17-31-2.88-21.9-1.46-33.22-1.78-22.83-.54-34.33-.64l-17.2.21-17.13.42c-11.33.3-22.46,1.07-33.23,1.78s-21.16,1.73-31,2.87S63.67,251.53,55.13,253s-16.33,3-23.19,4.55c-3.43.83-6.63,1.64-9.57,2.44s-5.62,1.7-8,2.51S9.82,264.07,8,264.88,4.7,266.42,3.5,267L0,269.28l3.81-1.55c1.27-.4,2.88-.82,4.72-1.35s4.08-.85,6.49-1.39,5.19-.84,8.13-1.32l9.64-1.2c6.91-.72,14.71-1.4,23.23-2,4.26-.29,8.7-.6,13.31-.79s9.35-.56,14.25-.75c9.78-.48,20.11-.71,30.79-1.1s21.73-.36,32.95-.64l16.91-.19h17.12c11.4-.05,22.81,0,34,.18s22.27.27,33,.64,21,.61,30.79,1.09c4.9.19,9.65.5,14.25.75s9.05.5,13.31.8c8.52.62,16.32,1.3,23.23,2l9.64,1.2c2.95.48,5.69.87,8.13,1.32s4.63.93,6.48,1.39,3.43.92,4.72,1.33l3.82,1.58Z"/><polygon class="cls-2" points="199.09 134.52 200.86 136.07 200.86 143.75 188.79 133.46 188.79 131.65 199.09 134.52"/><polygon class="cls-2" points="210.72 144.85 210.72 152.24 208.53 150.36 204.15 146.58 204.15 135.47 210.72 144.85"/><path class="cls-1" d="M85.84,341.57H74.28L69,331.25,56.41,306.52,43.83,331.25l-5.29,10.32H27l5.24-10.32,24.18-47.44,24.18,47.44Z"/><path class="cls-1" d="M142.84,299.38a15.57,15.57,0,0,1-9.12,14.2,14.44,14.44,0,0,1-4.5,1.27,1.6,1.6,0,0,1-.44,0v.1H101.13v26.56H90.84V283.79h36.43a15.5,15.5,0,0,1,11,4.56A15.7,15.7,0,0,1,142.84,299.38Zm-10.29,0a5.51,5.51,0,0,0-1.58-3.8,5.2,5.2,0,0,0-3.7-1.51H101.13V304.7h26.14a4.8,4.8,0,0,0,2.16-.48A5.26,5.26,0,0,0,132.55,299.38Z"/><path class="cls-1" d="M203.06,299.38a15.57,15.57,0,0,1-9.12,14.2,14.45,14.45,0,0,1-4.49,1.27,1.71,1.71,0,0,1-.45,0v.1H161.35v26.56H151.06V283.79h36.43a15.5,15.5,0,0,1,11,4.56A15.7,15.7,0,0,1,203.06,299.38Zm-10.29,0a5.56,5.56,0,0,0-1.57-3.8,5.24,5.24,0,0,0-3.71-1.51H161.36V304.7h26.13a4.74,4.74,0,0,0,2.16-.48A5.26,5.26,0,0,0,192.77,299.38Z"/><path class="cls-1" d="M221.57,299.42v5.35h37.15v10.29H221.57V326a5.32,5.32,0,0,0,5.29,5.32H269v10.29H226.86A15.6,15.6,0,0,1,211.28,326V299.42a15.6,15.6,0,0,1,15.58-15.61H269V294.1H226.86A5.32,5.32,0,0,0,221.57,299.42Z"/><path class="cls-1" d="M332.94,283.85l-22.36,28.94,22.26,28.81h-13L304.1,321.2l-15.74,20.4h-13l22.22-28.81-22.36-29h13l15.88,20.58L320,283.81h13ZM275.22,341.6h.14l-.14.18Zm57.72.14-.1-.14h.1Z"/><path class="cls-2" d="M46.32,368a6,6,0,0,1-6,6H27.43v-18.9H39.34a5.09,5.09,0,0,1,4.29,7.86A6,6,0,0,1,46.32,368Zm-15.52-6h8.54a1.74,1.74,0,1,0,0-3.47H30.8Zm12.15,6a2.66,2.66,0,0,0-2.66-2.65H30.8v5.31h9.49A2.66,2.66,0,0,0,43,367.94Z"/><path class="cls-2" d="M71.65,355.07v9.45a9.45,9.45,0,0,1-18.9,0v-9.45h3.37v9.45a6.08,6.08,0,1,0,12.16,0v-9.45Z"/><path class="cls-2" d="M78.75,374V355.08h3.37V374Z"/><path class="cls-2" d="M104.82,370.59V374H95.24a6,6,0,0,1-2.64-.62,5.85,5.85,0,0,1-2.74-2.75,5.75,5.75,0,0,1-.63-2.65V355.07H92.6v13.21a2.68,2.68,0,0,0,2.31,2.31Z"/><path class="cls-2" d="M121.36,355.08a9.44,9.44,0,0,1,9.43,9.44,9.34,9.34,0,0,1-2.23,6.08q-.26.3-.54.6a9.37,9.37,0,0,1-6.66,2.77h-9.45V355.08Zm-6.08,15.52h6.08a6.08,6.08,0,0,0,0-12.15h-6.08Z"/><path class="cls-2" d="M137.91,374V355.08h3.37V374Z"/><path class="cls-2" d="M167.28,355.07V374l-3.38-2.61L151.76,362v12h-3.37V355.14l3.37,2.6,12.14,9.36v-12Z"/><path class="cls-2" d="M177.75,364.52a6.09,6.09,0,0,0,6.08,6.08h6.08V367h-6.08v-3.37h9.45V374h-9.45a9.45,9.45,0,0,1,0-18.9h9.45v3.37h-9.45A6.08,6.08,0,0,0,177.75,364.52Z"/><path class="cls-2" d="M221.3,364.52a6.09,6.09,0,0,0,6.09,6.08h6.07V367h-6.07v-3.37h9.44V374h-9.44a9.45,9.45,0,1,1,0-18.9h9.44v3.37h-9.44A6.09,6.09,0,0,0,221.3,364.52Z"/><path class="cls-2" d="M259.22,370.59l1.72,3.38h-3.78l-1.73-3.38-1.81-3.54-.08-.15a3.34,3.34,0,0,0-2.87-1.62H247.3V374h-3.36v-18.9h11.92a5.07,5.07,0,0,1,3.6,1.49,5.15,5.15,0,0,1,1.49,3.62,5.08,5.08,0,0,1-3,4.64,4.61,4.61,0,0,1-1.47.42h0Zm-3.36-8.67a1.6,1.6,0,0,0,.71-.16,1.74,1.74,0,0,0,1-1.58,1.83,1.83,0,0,0-.52-1.25,1.73,1.73,0,0,0-1.21-.49h-8.55v3.48Z"/><path class="cls-2" d="M286.26,364.52a9.45,9.45,0,1,1-9.44-9.44A9.44,9.44,0,0,1,286.26,364.52Zm-3.37,0a6.08,6.08,0,1,0-6.07,6.08A6.08,6.08,0,0,0,282.89,364.52Z"/><path class="cls-2" d="M311.6,355.07v9.45a9.45,9.45,0,0,1-18.9,0v-9.45h3.37v9.45a6.08,6.08,0,0,0,12.16,0v-9.45Z"/><path class="cls-2" d="M335.71,360.17a5.09,5.09,0,0,1-3,4.64,5,5,0,0,1-1.47.42h-.15v0h-9V374H318.7V355.07h11.92a5.07,5.07,0,0,1,3.6,1.49A5.14,5.14,0,0,1,335.71,360.17Zm-3.36,0a1.83,1.83,0,0,0-.52-1.25,1.73,1.73,0,0,0-1.21-.49h-8.55v3.48h8.55a1.6,1.6,0,0,0,.71-.16A1.74,1.74,0,0,0,332.35,360.17Z"/></g></g></svg>