<svg xmlns="http://www.w3.org/2000/svg" viewBox="0 0 362.7 373.97">
  <defs/>
  <defs>
    <style>
      .cls-1{fill:#ea8313}.cls-2{fill:#606060}
    </style>
  </defs>
  <g id="Layer_2" data-name="Layer 2">
    <g id="Layer_1-2" data-name="Layer 1">
      <path d="M229.29 175.4v63.07c-4.31-.25-8.7-.46-13.12-.53v-60L173 149.16V237l-8.81.11-17.12.42c-6.79.18-13.47.53-20.09 1v-66.67l7.82-6.68L173 135.4z" class="cls-1"/>
      <path d="M276.73 125.39v116.79c-8.85-1-18.18-1.87-27.84-2.48-1.27-.1-2.55-.17-3.86-.28v-133l-24.51 18.79-9.8 6.12v20.87l-2.19-1.88-4.38-3.78v-17.61l16.37-10.26L245 99.89z" class="cls-2"/>
      <path d="M220.52 25.47v89.38l-19.66 12.24v16.66l-12.07-10.29V6.58l-34.27 21.36v52.49l-6.61-5.3V25.47L188.79 0l31.73 25.47z" class="cls-2"/>
      <path d="M100.45 96.71l34.29-21.37v79l13.18-11.27 6.61-5.66 11.93-10.19v-33l-11.93-9.6-6.61-5.29-13.18-10.56-40.89 25.47v147.13c2.17-.23 4.37-.46 6.6-.65zM359.21 267.07c-1.19-.62-2.72-1.31-4.53-2.17s-3.94-1.54-6.33-2.43-5.09-1.59-8-2.51-6.14-1.61-9.57-2.43c-6.87-1.57-14.65-3.21-23.2-4.56s-17.81-2.79-27.66-3.83-20.23-2.17-31-2.88-21.9-1.46-33.22-1.78-22.83-.54-34.33-.64l-17.2.21-17.13.42c-11.33.3-22.46 1.07-33.23 1.78s-21.16 1.73-31 2.87-19.14 2.41-27.68 3.88-16.33 3-23.19 4.55c-3.43.83-6.63 1.64-9.57 2.44s-5.62 1.7-8 2.51-4.55 1.57-6.37 2.38-3.3 1.54-4.5 2.12L0 269.28l3.81-1.55c1.27-.4 2.88-.82 4.72-1.35s4.08-.85 6.49-1.39 5.19-.84 8.13-1.32l9.64-1.2c6.91-.72 14.71-1.4 23.23-2 4.26-.29 8.7-.6 13.31-.79s9.35-.56 14.25-.75c9.78-.48 20.11-.71 30.79-1.1s21.73-.36 32.95-.64l16.91-.19h17.12c11.4-.05 22.81 0 34 .18s22.27.27 33 .64 21 .61 30.79 1.09c4.9.19 9.65.5 14.25.75s9.05.5 13.31.8c8.52.62 16.32 1.3 23.23 2l9.64 1.2c2.95.48 5.69.87 8.13 1.32s4.63.93 6.48 1.39 3.43.92 4.72 1.33l3.82 1.58zM199.09 134.52l1.77 1.55v7.68l-12.07-10.29v-1.81l10.3 2.87zM210.72 144.85v7.39l-2.19-1.88-4.38-3.78v-11.11l6.57 9.38z" class="cls-2"/>
      <path d="M85.84 341.57H74.28L69 331.25l-12.59-24.73-12.58 24.73-5.29 10.32H27l5.24-10.32 24.18-47.44 24.18 47.44zM142.84 299.38a15.57 15.57 0 01-9.12 14.2 14.44 14.44 0 01-4.5 1.27 1.6 1.6 0 01-.44 0v.1h-27.65v26.56H90.84v-57.72h36.43a15.5 15.5 0 0111 4.56 15.7 15.7 0 014.57 11.03zm-10.29 0a5.51 5.51 0 00-1.58-3.8 5.2 5.2 0 00-3.7-1.51h-26.14v10.63h26.14a4.8 4.8 0 002.16-.48 5.26 5.26 0 003.12-4.84zM203.06 299.38a15.57 15.57 0 01-9.12 14.2 14.45 14.45 0 01-4.49 1.27 1.71 1.71 0 01-.45 0v.1h-27.65v26.56h-10.29v-57.72h36.43a15.5 15.5 0 0111 4.56 15.7 15.7 0 014.57 11.03zm-10.29 0a5.56 5.56 0 00-1.57-3.8 5.24 5.24 0 00-3.71-1.51h-26.13v10.63h26.13a4.74 4.74 0 002.16-.48 5.26 5.26 0 003.12-4.84zM221.57 299.42v5.35h37.15v10.29h-37.15V326a5.32 5.32 0 005.29 5.32H269v10.29h-42.14A15.6 15.6 0 01211.28 326v-26.58a15.6 15.6 0 0115.58-15.61H269v10.29h-42.14a5.32 5.32 0 00-5.29 5.32zM332.94 283.85l-22.36 28.94 22.26 28.81h-13l-15.74-20.4-15.74 20.4h-13l22.22-28.81-22.36-29h13l15.88 20.58 15.9-20.56h13zm-57.72 57.75h.14l-.14.18zm57.72.14l-.1-.14h.1z" class="cls-1"/>
      <path d="M46.32 368a6 6 0 01-6 6H27.43v-18.9h11.91a5.09 5.09 0 014.29 7.86 6 6 0 012.69 5.04zm-15.52-6h8.54a1.74 1.74 0 100-3.47H30.8zm12.15 6a2.66 2.66 0 00-2.66-2.65H30.8v5.31h9.49a2.66 2.66 0 002.71-2.72zM71.65 355.07v9.45a9.45 9.45 0 01-18.9 0v-9.45h3.37v9.45a6.08 6.08 0 1012.16 0v-9.45zM78.75 374v-18.92h3.37V374zM104.82 370.59V374h-9.58a6 6 0 01-2.64-.62 5.85 5.85 0 01-2.74-2.75 5.75 5.75 0 01-.63-2.65v-12.91h3.37v13.21a2.68 2.68 0 002.31 2.31zM121.36 355.08a9.44 9.44 0 019.43 9.44 9.34 9.34 0 01-2.23 6.08q-.26.3-.54.6a9.37 9.37 0 01-6.66 2.77h-9.45v-18.89zm-6.08 15.52h6.08a6.08 6.08 0 000-12.15h-6.08zM137.91 374v-18.92h3.37V374zM167.28 355.07V374l-3.38-2.61-12.14-9.39v12h-3.37v-18.86l3.37 2.6 12.14 9.36v-12zM177.75 364.52a6.09 6.09 0 006.08 6.08h6.08V367h-6.08v-3.37h9.45V374h-9.45a9.45 9.45 0 010-18.9h9.45v3.37h-9.45a6.08 6.08 0 00-6.08 6.05zM221.3 364.52a6.09 6.09 0 006.09 6.08h6.07V367h-6.07v-3.37h9.44V374h-9.44a9.45 9.45 0 110-18.9h9.44v3.37h-9.44a6.09 6.09 0 00-6.09 6.05zM259.22 370.59l1.72 3.38h-3.78l-1.73-3.38-1.81-3.54-.08-.15a3.34 3.34 0 00-2.87-1.62h-3.37V374h-3.36v-18.9h11.92a5.07 5.07 0 013.6 1.49 5.15 5.15 0 011.49 3.62 5.08 5.08 0 01-3 4.64 4.61 4.61 0 01-1.47.42zm-3.36-8.67a1.6 1.6 0 00.71-.16 1.74 1.74 0 001-1.58 1.83 1.83 0 00-.52-1.25 1.73 1.73 0 00-1.21-.49h-8.55v3.48zM286.26 364.52a9.45 9.45 0 11-9.44-9.44 9.44 9.44 0 019.44 9.44zm-3.37 0a6.08 6.08 0 10-6.07 6.08 6.08 6.08 0 006.07-6.08zM311.6 355.07v9.45a9.45 9.45 0 01-18.9 0v-9.45h3.37v9.45a6.08 6.08 0 0012.16 0v-9.45zM335.71 360.17a5.09 5.09 0 01-3 4.64 5 5 0 01-1.47.42h-9.15V374h-3.39v-18.93h11.92a5.07 5.07 0 013.6 1.49 5.14 5.14 0 011.49 3.61zm-3.36 0a1.83 1.83 0 00-.52-1.25 1.73 1.73 0 00-1.21-.49h-8.55v3.48h8.55a1.6 1.6 0 00.71-.16 1.74 1.74 0 001.02-1.58z" class="cls-2"/>
    </g>
  </g>
</svg>
